<svg version="1.2" xmlns="http://www.w3.org/2000/svg" viewBox="0 0 400 520" width="385" height="500">
	<title>thinking_duke</title>
	<defs>
		<radialGradient id="g1" cx="0" cy="0" r="1" gradientUnits="userSpaceOnUse" gradientTransform="matrix(102.2,0,0,102.2,239.599,272.13)">
			<stop offset="0" stop-color="#fccab7"/>
			<stop offset=".172" stop-color="#f89b8f"/>
			<stop offset=".363" stop-color="#f46e69"/>
			<stop offset=".548" stop-color="#f14a4b"/>
			<stop offset=".72" stop-color="#ef3136"/>
			<stop offset=".875" stop-color="#ed2129"/>
			<stop offset="1" stop-color="#ed1c24"/>
		</radialGradient>
	</defs>
	<style>
		.s0 { fill: #c5bb39 } 
		.s1 { fill: #ffffff } 
		.s2 { fill: url(#g1) } 
		.s3 { fill: #000000 } 
	</style>
	<path id="0" class="s0" aria-label="0"  d="m287.9 103.8q-9.8-31.4-45.5-37.5-35.4-6-96.9 13.4-61.3 19.4-87.2 44.8-25.5 25.5-15.8 56.9 9.9 31.5 45.3 37.6 35.7 6.1 97-13.3 61.5-19.4 87.1-45 25.9-25.4 16-56.9zm31.9-10.1q15.8 50.4-15.7 89.5-31.1 39.2-106.6 63.1-75.3 23.8-123.3 9.7-47.8-14.1-63.6-64.5-15.7-50.4 15.4-89.7 31.5-39.1 106.7-62.9 75.5-23.9 123.3-9.8 48.1 14.1 63.8 64.6z"/>
	<path fill-rule="evenodd" class="s1" d="m131.9 480.5c14.2-2.3 46.7-24.9 55.4-28.8 8.6-3.7 42.7-18.2 53.2-18.2 10.5 0 39.1 13.4 45.9 24 6.6 10.5 12.4 30.6 26.8 29.8 14.1-1 27.5-45.1 27.5-56.7 0-11.6-5.5-47-11.3-53.9-5.8-6.6-68.7-95.9-108-94.8-38.9 0.8-86.6 31.5-93.4 59.2-6.6 28-12.3 67.3-12.3 85.5 0 18.5 10.5 54.9 16.2 53.9z"/>
	<path fill-rule="evenodd" class="s2" d="m197.7 348.8c12.4 18.6 62 29 91.6 12.6 29.6-16.4 55.3-68.1 37.2-94-18.1-25.9-82.1-39.4-108.8-13.5-26.5 25.9-38.1 68-20 94.9z"/>
	<path fill-rule="evenodd" class="s3" d="m242.2 313.2c-4.5 3.7-33.8 16.3-21.8 27.1 14.2 12.8 35.8 6.2 48.3-4 5 0 6.2 3.8 6.6 6.5-10.9 5.8-16.9 16.9-15 24.2 7.4 26.1 27.6 37.7 55.1 37.7 7.4 0 17.7-4.8 19.4-8.9 4.9 0.8 15.2-1.7 18.3-7.9 9.4 2.5 39.1 11.8 41.1 3.1 1.7-6-10.9-15.7-15.8-19.7-5-3.7-33.6-23.6-41.8-28.3-1-0.9-1.2 3.1-0.6 4.7 3.3 2.7 35 25.7 38.9 29.2 11.5 10.2-12.4 5.8-20.6 3.6 0.2-4.4-6.4-11.8-14-10-3.3-15.1-24.7-30.6 1-36 20-6.4 4.1-24-7.2-23.8-7 0-19.9-1.5-26.3 9.1-2.5 3.9-12.3-3.9-12.3-6.6-1.3 0-11.4-11.4-11.8-11.6-7.8-4.2-17.2-8.9-26.1-1.9-5.7 4.8-9.7 8.9-15.4 13.5z"/>
	<path fill-rule="evenodd" class="s3" d="m116.1 419.4c3.1-1.1 13.6-2.5 17.9-3.9 7.2-2.5 11.1-15.4 14-25.1 2.8-9.7 3.7-25.7 0-34-2.9-6.2-34.6-9.7-53.9-1.8-3.3-4.2-10.9-5-19-1.1-9.4-2-19.9-6-20.3-8-0.8-5.4 24-10.4 35.2-11.6 11.3-1.5 36.6-5.8 35.5 11.6 1.5 0 3.3 0.4 4.6 0.4 0-20.1 42.8-29 55.3-33.2-2.1 10-0.4 26.3 4.7 35.2 3.3 6.3 18.8 30.1 66.3 26.8 2-2.5-1.7-6-1.3-11-10.9 0-61.3-0.2-59.8-44.5 1.6-46.4 33.7-73.8 72.8-73.6 42.4 0.3 60.5 16.4 58.2 58-0.2 6.4 5 2.9 10.7 2.9 11.7-37-6.6-68.9-60.5-70.8-21.8-41.2-94.2-117.6-138.2-134 34.1 55.9 17.9 161.3-4.5 211.9-3.1 7-37.3 12.6-49.4 14.3-11.9 1.6-45.5 9.3-45.5 16.7 0 6.9 29.5 19.7 32.5 20.9 0.2 12.1 3.3 10.6 13.6 10.6 0.6 4.1 19.6 17.6 19.6 21.5 0.6 0 0.4 2.7-3.3 2.9-3.7 2.1-10.5 10.6-6.6 19.7 2.2 5 8 3.5 21.4-0.8z"/>
	<path fill-rule="evenodd" class="s3" d="m112.8 425c-2.7 25 1.2 58.6 21.8 60 18.3 1.5 28.4-10.3 48.7-24.8 7.5-5 30.1-18.7 51.1-20.1 6.6-0.4 20.3 0.2 26.5 3.5 14.6 7.5 30.4 35.2 35.2 41.4 4.9 6.4 10.3 10.6 22.6 10.4 12.1-0.2 21.2-26.3 23.3-32.7 5.1-16.2 5.1-48.1-0.9-58.6-1-1.9-4.1-5.8-5.3-0.9-1.7 6.5 3.5 23.2-0.2 44.1-1.9 10-14.4 49.3-28.2 30.3-12.3-17.2-16.3-32.3-42-45.2-15.2-7.6-34.1-7-50.4-1.2-15.2 5.6-47.1 26.1-53.9 31.3-6.8 4.9-23.6 17.4-29.4 11.1-8.4-9.1-10.9-32.9-10.9-44.5 0-9.3-7.8-6.2-8-4.1z"/>
</svg>